<?xml version="1.0" encoding="iso-8859-1"?>
<!-- Generator: Adobe Illustrator 19.0.0, SVG Export Plug-In . SVG Version: 6.00 Build 0)  -->
<svg version="1.1" id="Capa_1" xmlns="http://www.w3.org/2000/svg" xmlns:xlink="http://www.w3.org/1999/xlink" x="0px" y="0px"
	 viewBox="0 0 490 490" style="enable-background:new 0 0 490 490;" xml:space="preserve">
<g id="Black_13_">
	<path d="M474.687,22.969H15.313C6.891,22.969,0,29.859,0,38.281v327.948c0,8.422,6.891,15.313,15.313,15.313h214.375v54.865
		H126.328v30.625h237.344v-30.625H260.313v-54.865h214.375c8.422,0,15.313-6.891,15.313-15.313V38.281
		C490,29.859,483.109,22.969,474.687,22.969z M459.375,350.917H30.625V53.594h428.75V350.917z"/>
	<path d="M166.202,293.005c50.102,0,90.727-40.624,90.727-90.727c0-50.103-40.624-90.727-90.727-90.727
		c-50.103,0-90.727,40.624-90.727,90.727C75.475,252.381,116.099,293.005,166.202,293.005z M222.246,181.086h-37.623v-35.709
		C201.957,151.012,215.799,164.119,222.246,181.086z M153.998,143.432v68.263h71.356c-4.563,28.65-29.232,50.669-59.137,50.669
		c-33.136,0-60.102-26.965-60.102-60.102C106.1,173.322,126.696,149.098,153.998,143.432z"/>
	<rect x="292.744" y="225.277" width="121.78" height="30.625"/>
	<rect x="292.744" y="130.677" width="121.78" height="30.625"/>
	<rect x="292.744" y="179.401" width="121.78" height="30.625"/>
</g>
<g>
</g>
<g>
</g>
<g>
</g>
<g>
</g>
<g>
</g>
<g>
</g>
<g>
</g>
<g>
</g>
<g>
</g>
<g>
</g>
<g>
</g>
<g>
</g>
<g>
</g>
<g>
</g>
<g>
</g>
</svg>
